<svg width="26" height="26" viewBox="0 0 26 26" fill="none" xmlns="http://www.w3.org/2000/svg">
<path d="M4.59341 13.2709C4.16507 12.8454 3.8257 12.3389 3.59507 11.7809C3.36444 11.2229 3.24717 10.6246 3.25008 10.0209C3.25008 8.79979 3.73516 7.6287 4.59861 6.76526C5.46206 5.90181 6.63315 5.41673 7.85425 5.41673C9.56592 5.41673 11.0609 6.34839 11.8517 7.73506H13.0651C13.4671 7.02987 14.0489 6.44382 14.7511 6.03658C15.4533 5.62935 16.2508 5.41547 17.0626 5.41673C18.2837 5.41673 19.4548 5.90181 20.3182 6.76526C21.1817 7.6287 21.6667 8.79979 21.6667 10.0209C21.6667 11.2884 21.1251 12.4584 20.3234 13.2709L12.4584 21.1251L4.59341 13.2709ZM21.0817 14.0401C22.1109 13.0001 22.7501 11.5917 22.7501 10.0209C22.7501 8.51247 22.1509 7.06584 21.0843 5.99922C20.0176 4.93261 18.571 4.33339 17.0626 4.33339C15.1667 4.33339 13.4876 5.25423 12.4584 6.68423C11.9331 5.9546 11.2414 5.36074 10.4407 4.9519C9.63996 4.54306 8.7533 4.33103 7.85425 4.33339C6.34583 4.33339 4.89919 4.93261 3.83258 5.99922C2.76597 7.06584 2.16675 8.51247 2.16675 10.0209C2.16675 11.5917 2.80591 13.0001 3.83508 14.0401L12.4584 22.6634L21.0817 14.0401Z" fill="#F8F8F8"/>
</svg>
